<?xml version="1.0" encoding="utf-8"?>
<svg version="1.2" baseProfile="tiny" id="Layer_1"
  xmlns="http://www.w3.org/2000/svg"
  xmlns:xlink="http://www.w3.org/1999/xlink"
  x="0px" y="0px" viewBox="0 0 512 512"
  overflow="visible" xml:space="preserve">

  <!-- Cadre -->
  <g>
    <path fill="#FFFFFF" d="M462.4,511.9H49.6c-27.2,0-49.6-22.4-49.6-49.6V49.6
      C0.1,22.4,22.4,0,49.6,0h411.2
      C489.6,0,512,22.4,512,49.6v411.2
      C512,489.6,489.6,511.9,462.4,511.9z
      M49.6,25.6c-12.8,0-24,11.2-24,24v411.2
      c0,12.8,11.2,24,24,24h411.2
      c12.8,0,24-11.2,24-24V49.6
      c0-12.8-11.2-24-24-24H49.6z"/>
  </g>

  <!-- Lettre P -->
  <g>
    <path fill="#FFFFFF" d="
      M176 128
      h96
      c64 0 96 32 96 80
      s-32 80-96 80
      h-48
      v96
      h-48
      z

      M224 176
      v64
      h48
      c32 0 48-12 48-32
      s-16-32-48-32
      z"/>
  </g>

</svg>
