<?xml version="1.0" encoding="utf-8"?>
<!-- Generator: Adobe Illustrator 28.4.1, SVG Export Plug-In . SVG Version: 6.00 Build 0)  -->
<svg version="1.2" baseProfile="tiny" id="Layer_1" xmlns="http://www.w3.org/2000/svg" xmlns:xlink="http://www.w3.org/1999/xlink"
	 x="0px" y="0px" viewBox="0 0 512 512" overflow="visible" xml:space="preserve">
<g>
	<path fill="#010101" d="M462.4,512H49.6C22.4,512,0,489.6,0,462.4V49.6C0,22.4,22.4,0,49.6,0h411.2C489.6,0,512,22.4,512,49.6
		v411.2C512,489.6,489.6,512,462.4,512z"/>
</g>
<g>
	<!-- Lettre P (remplace le M) -->
	<path fill="#FFFFFF" d="M176,128h96c64,0,96,32,96,80s-32,80-96,80h-48v96h-48V128z
		M224,176v64h48c32,0,48-12,48-32s-16-32-48-32H224z"/>
</g>
</svg>
